<svg id="svg" version="1.1" xmlns="http://www.w3.org/2000/svg" xmlns:xlink="http://www.w3.org/1999/xlink" width="400" height="400" viewBox="0, 0, 400,400"><g id="svgg"><path id="path0" d="M310.000 37.589 C 310.000 37.825,308.978 38.000,307.600 38.000 C 306.267 38.000,305.200 38.178,305.200 38.400 C 305.200 38.620,304.401 38.800,303.424 38.800 C 302.447 38.800,301.536 38.980,301.400 39.200 C 301.264 39.420,300.433 39.600,299.553 39.600 C 298.588 39.600,298.051 39.759,298.200 40.000 C 298.347 40.238,297.871 40.400,297.024 40.400 C 296.241 40.400,295.600 40.580,295.600 40.800 C 295.600 41.020,295.060 41.200,294.400 41.200 C 293.740 41.200,293.200 41.380,293.200 41.600 C 293.200 41.820,292.761 42.000,292.224 42.000 C 291.687 42.000,291.134 42.183,290.996 42.407 C 290.858 42.630,290.590 42.717,290.400 42.600 C 290.210 42.483,289.942 42.570,289.804 42.793 C 289.666 43.017,289.203 43.200,288.776 43.200 C 288.349 43.200,288.000 43.342,288.000 43.515 C 288.000 43.688,287.611 43.859,287.136 43.895 C 286.661 43.931,286.166 44.124,286.036 44.324 C 285.906 44.524,285.125 44.929,284.300 45.224 C 283.475 45.519,282.800 45.905,282.800 46.080 C 282.800 46.256,282.474 46.400,282.075 46.400 C 281.677 46.400,280.964 46.760,280.492 47.200 C 280.020 47.640,279.356 48.000,279.017 48.000 C 278.678 48.000,278.400 48.180,278.400 48.400 C 278.400 48.620,278.170 48.800,277.888 48.800 C 277.607 48.800,277.117 49.160,276.800 49.600 C 276.483 50.040,275.943 50.400,275.600 50.400 C 275.257 50.400,274.717 50.760,274.400 51.200 C 274.083 51.640,273.620 52.000,273.371 52.000 C 273.122 52.000,272.393 52.495,271.750 53.100 C 271.108 53.705,269.900 54.713,269.065 55.340 C 268.231 55.967,266.750 57.256,265.774 58.204 C 264.798 59.153,264.000 59.840,264.000 59.732 C 264.000 59.623,263.276 60.314,262.391 61.267 C 261.506 62.220,260.246 63.570,259.591 64.266 C 258.936 64.962,258.400 65.705,258.400 65.917 C 258.400 66.130,257.680 67.045,256.800 67.952 C 255.920 68.859,255.200 69.831,255.200 70.112 C 255.200 70.393,254.840 70.883,254.400 71.200 C 253.960 71.517,253.600 72.014,253.600 72.305 C 253.600 72.596,253.240 73.220,252.800 73.692 C 252.360 74.164,252.000 74.787,252.000 75.075 C 252.000 75.364,251.820 75.600,251.600 75.600 C 251.380 75.600,251.200 75.836,251.200 76.125 C 251.200 76.413,250.840 77.036,250.400 77.508 C 249.960 77.980,249.600 78.644,249.600 78.983 C 249.600 79.322,249.420 79.600,249.200 79.600 C 248.980 79.600,248.800 79.870,248.800 80.200 C 248.800 80.530,248.620 80.800,248.400 80.800 C 248.180 80.800,248.021 80.935,248.047 81.100 C 248.190 82.004,247.948 82.815,247.600 82.600 C 247.380 82.464,247.200 82.713,247.200 83.153 C 247.200 83.593,247.020 84.064,246.800 84.200 C 246.580 84.336,246.400 84.791,246.400 85.211 C 246.400 85.632,246.040 86.617,245.600 87.400 C 245.160 88.183,244.800 89.179,244.800 89.612 C 244.800 90.045,244.620 90.400,244.400 90.400 C 244.180 90.400,244.000 90.940,244.000 91.600 C 244.000 92.287,243.786 92.805,243.500 92.812 C 243.225 92.819,243.324 93.013,243.720 93.243 C 244.452 93.669,244.368 96.779,243.597 97.800 C 243.431 98.020,243.179 98.920,243.037 99.800 C 242.895 100.680,242.590 102.390,242.359 103.600 C 242.129 104.810,241.849 107.005,241.738 108.478 C 241.617 110.085,241.309 111.343,240.968 111.627 C 240.275 112.202,240.113 127.600,240.800 127.600 C 241.026 127.600,241.200 128.741,241.200 130.224 C 241.200 131.667,241.351 132.754,241.536 132.640 C 241.720 132.526,241.903 133.256,241.941 134.262 C 241.979 135.269,242.106 136.247,242.223 136.437 C 242.340 136.626,242.504 137.280,242.588 137.891 C 242.672 138.501,243.226 140.440,243.819 142.200 C 244.412 143.960,244.905 145.625,244.915 145.900 C 244.925 146.175,245.051 146.400,245.194 146.400 C 245.338 146.400,245.700 147.300,246.000 148.400 C 246.300 149.500,246.692 150.400,246.872 150.400 C 247.053 150.400,247.200 150.760,247.200 151.200 C 247.200 151.640,247.380 152.000,247.600 152.000 C 247.820 152.000,248.000 152.360,248.000 152.800 C 248.000 153.240,248.180 153.600,248.400 153.600 C 248.620 153.600,248.800 153.971,248.800 154.424 C 248.800 154.877,248.980 155.136,249.200 155.000 C 249.420 154.864,249.600 155.036,249.600 155.382 C 249.600 156.175,250.389 157.595,251.300 158.443 C 251.685 158.801,252.000 159.388,252.000 159.747 C 252.000 160.106,252.180 160.400,252.400 160.400 C 252.620 160.400,252.800 160.636,252.800 160.925 C 252.800 161.213,253.120 161.798,253.511 162.225 C 253.902 162.651,254.662 163.630,255.200 164.400 C 255.738 165.170,256.498 166.149,256.889 166.575 C 257.280 167.002,257.600 167.598,257.600 167.899 C 257.600 168.201,257.767 168.344,257.971 168.218 C 258.175 168.092,258.446 168.315,258.573 168.714 C 258.902 169.751,269.584 180.377,269.612 179.695 C 269.619 179.533,269.808 179.715,270.032 180.100 C 270.256 180.485,270.612 180.800,270.824 180.800 C 271.035 180.800,271.772 181.340,272.463 182.000 C 273.154 182.660,273.962 183.200,274.259 183.200 C 274.557 183.200,274.800 183.380,274.800 183.600 C 274.800 183.820,275.042 184.000,275.338 184.000 C 275.634 184.000,276.178 184.334,276.548 184.742 C 276.917 185.150,278.025 185.898,279.010 186.405 C 279.994 186.911,280.800 187.477,280.800 187.663 C 280.800 187.848,281.160 188.000,281.600 188.000 C 282.040 188.000,282.400 188.180,282.400 188.400 C 282.400 188.620,282.760 188.800,283.200 188.800 C 283.640 188.800,284.000 188.980,284.000 189.200 C 284.000 189.420,284.360 189.600,284.800 189.600 C 285.240 189.600,285.600 189.780,285.600 190.000 C 285.600 190.220,285.949 190.400,286.376 190.400 C 286.803 190.400,287.259 190.572,287.389 190.783 C 287.519 190.993,287.890 191.064,288.213 190.940 C 288.536 190.816,288.800 190.914,288.800 191.157 C 288.800 191.401,289.239 191.600,289.776 191.600 C 290.313 191.600,290.864 191.780,291.000 192.000 C 291.136 192.220,291.597 192.400,292.024 192.400 C 292.451 192.400,292.800 192.580,292.800 192.800 C 292.800 193.020,293.351 193.200,294.024 193.200 C 294.737 193.200,295.144 193.367,295.000 193.600 C 294.856 193.833,295.255 194.000,295.953 194.000 C 296.613 194.000,297.264 194.180,297.400 194.400 C 297.536 194.620,298.367 194.800,299.247 194.800 C 300.212 194.800,300.749 194.959,300.600 195.200 C 300.449 195.445,301.070 195.600,302.200 195.600 C 303.359 195.600,303.953 195.753,303.794 196.010 C 303.655 196.235,303.689 196.394,303.870 196.363 C 305.195 196.132,308.806 196.467,308.600 196.800 C 308.453 197.038,308.923 197.200,309.757 197.200 C 310.638 197.200,311.296 196.957,311.525 196.548 C 311.855 195.958,312.277 195.945,315.963 196.415 C 319.258 196.835,320.872 196.839,324.414 196.434 C 328.305 195.990,328.862 196.004,329.424 196.567 C 330.119 197.261,332.400 197.440,332.400 196.800 C 332.400 196.580,333.300 196.400,334.400 196.400 C 335.500 196.400,336.400 196.255,336.400 196.078 C 336.400 195.901,337.165 195.712,338.100 195.657 C 339.035 195.602,339.971 195.387,340.180 195.179 C 340.389 194.970,341.154 194.800,341.880 194.800 C 342.606 194.800,343.200 194.620,343.200 194.400 C 343.200 194.180,343.740 194.000,344.400 194.000 C 345.060 194.000,345.600 193.820,345.600 193.600 C 345.600 193.380,346.140 193.200,346.800 193.200 C 347.460 193.200,348.000 193.053,348.000 192.872 C 348.000 192.692,348.900 192.300,350.000 192.000 C 351.100 191.700,352.000 191.300,352.000 191.110 C 352.000 190.920,352.225 190.812,352.500 190.870 C 353.094 190.995,359.341 188.041,359.533 187.544 C 359.607 187.355,360.012 187.200,360.433 187.200 C 360.855 187.200,361.200 187.020,361.200 186.800 C 361.200 186.580,361.436 186.400,361.725 186.400 C 362.013 186.400,362.636 186.040,363.108 185.600 C 363.580 185.160,364.204 184.800,364.495 184.800 C 364.786 184.800,365.283 184.440,365.600 184.000 C 365.917 183.560,366.391 183.200,366.654 183.200 C 366.917 183.200,367.763 182.586,368.535 181.837 C 369.307 181.087,370.315 180.354,370.775 180.208 C 371.235 180.062,371.508 179.775,371.382 179.571 C 371.256 179.367,371.347 179.200,371.583 179.200 C 372.200 179.200,374.750 176.489,374.450 176.153 C 374.313 175.998,374.403 175.988,374.652 176.130 C 375.044 176.353,379.200 172.713,379.200 172.146 C 379.200 172.031,379.881 171.276,380.713 170.469 C 381.545 169.661,382.667 168.370,383.207 167.600 C 384.273 166.080,385.117 165.008,385.900 164.184 C 386.175 163.894,386.400 163.464,386.400 163.229 C 386.400 162.993,386.580 162.800,386.800 162.800 C 387.020 162.800,387.200 162.530,387.200 162.200 C 387.200 161.870,387.380 161.600,387.600 161.600 C 387.820 161.600,388.000 161.330,388.000 161.000 C 388.000 160.670,388.180 160.400,388.400 160.400 C 388.620 160.400,388.800 160.216,388.800 159.991 C 388.800 159.767,389.239 158.912,389.776 158.091 C 390.312 157.271,390.807 156.330,390.876 156.000 C 390.944 155.670,391.090 155.310,391.200 155.200 C 391.662 154.738,393.200 151.479,393.200 150.962 C 393.200 150.653,393.380 150.400,393.600 150.400 C 393.820 150.400,394.000 150.135,394.000 149.812 C 394.000 149.489,394.360 148.583,394.800 147.800 C 395.240 147.017,395.600 146.032,395.600 145.611 C 395.600 145.191,395.780 144.736,396.000 144.600 C 396.220 144.464,396.400 143.913,396.400 143.376 C 396.400 142.839,396.580 142.400,396.800 142.400 C 397.020 142.400,397.200 141.759,397.200 140.976 C 397.200 140.129,397.362 139.653,397.600 139.800 C 397.838 139.947,398.000 139.479,398.000 138.647 C 398.000 137.877,398.180 137.136,398.400 137.000 C 398.620 136.864,398.800 136.079,398.800 135.256 C 398.800 134.433,399.025 133.535,399.300 133.260 C 399.683 132.877,399.800 129.155,399.800 117.400 C 399.800 105.645,399.683 101.923,399.300 101.540 C 399.025 101.265,398.800 100.266,398.800 99.320 C 398.800 98.374,398.620 97.600,398.400 97.600 C 398.180 97.600,398.000 96.985,398.000 96.233 C 398.000 95.482,397.826 94.807,397.613 94.733 C 397.400 94.660,397.182 94.027,397.130 93.328 C 397.077 92.628,396.891 92.144,396.717 92.251 C 396.543 92.359,396.400 91.897,396.400 91.224 C 396.400 90.551,396.220 90.000,396.000 90.000 C 395.780 90.000,395.600 89.550,395.600 89.000 C 395.600 88.450,395.420 88.000,395.200 88.000 C 394.980 88.000,394.800 87.449,394.800 86.776 C 394.800 86.063,394.633 85.656,394.400 85.800 C 394.180 85.936,394.000 85.687,394.000 85.247 C 394.000 84.807,393.820 84.336,393.600 84.200 C 393.380 84.064,393.200 83.603,393.200 83.176 C 393.200 82.749,393.020 82.400,392.800 82.400 C 392.580 82.400,392.400 82.040,392.400 81.600 C 392.400 81.160,392.248 80.800,392.063 80.800 C 391.878 80.800,391.520 80.110,391.267 79.267 C 391.015 78.424,390.356 77.209,389.804 76.567 C 388.857 75.465,388.642 75.002,388.753 74.300 C 388.779 74.135,388.632 74.000,388.427 74.000 C 388.222 74.000,387.938 73.634,387.796 73.187 C 387.654 72.740,387.106 71.942,386.578 71.414 C 386.050 70.886,385.569 70.221,385.509 69.937 C 385.449 69.652,384.733 68.761,383.918 67.958 C 383.103 67.155,382.520 66.413,382.623 66.311 C 382.879 66.054,372.874 56.000,372.363 56.000 C 372.137 56.000,372.064 55.820,372.200 55.600 C 372.336 55.380,372.167 55.200,371.824 55.200 C 371.481 55.200,371.200 55.020,371.200 54.800 C 371.200 54.580,370.994 54.400,370.743 54.400 C 370.492 54.400,369.800 53.905,369.205 53.300 C 368.609 52.695,367.881 52.144,367.587 52.075 C 367.292 52.006,366.748 51.601,366.378 51.175 C 366.009 50.749,365.412 50.400,365.053 50.400 C 364.694 50.400,364.400 50.250,364.400 50.068 C 364.400 49.885,363.905 49.480,363.300 49.168 C 362.695 48.855,361.960 48.373,361.668 48.096 C 361.375 47.819,361.003 47.675,360.841 47.775 C 360.678 47.875,360.293 47.607,359.985 47.179 C 359.676 46.750,359.238 46.400,359.012 46.401 C 358.561 46.402,355.121 44.741,354.800 44.367 C 354.690 44.239,353.610 43.798,352.400 43.386 C 351.190 42.975,350.029 42.495,349.820 42.319 C 349.611 42.144,349.037 42.000,348.544 42.000 C 348.051 42.000,347.536 41.820,347.400 41.600 C 347.264 41.380,346.623 41.200,345.976 41.200 C 345.329 41.200,344.800 41.020,344.800 40.800 C 344.800 40.580,344.260 40.400,343.600 40.400 C 342.940 40.400,342.400 40.220,342.400 40.000 C 342.400 39.780,341.781 39.600,341.024 39.600 C 340.267 39.600,339.536 39.420,339.400 39.200 C 339.264 38.980,338.353 38.800,337.376 38.800 C 336.399 38.800,335.600 38.620,335.600 38.400 C 335.600 38.174,334.459 38.000,332.976 38.000 C 331.445 38.000,330.449 37.844,330.585 37.625 C 330.727 37.395,326.777 37.236,320.408 37.213 C 313.519 37.189,310.000 37.316,310.000 37.589 M329.420 56.361 C 329.629 56.560,330.700 56.827,331.800 56.954 C 332.900 57.081,334.070 57.255,334.400 57.341 C 334.730 57.427,335.769 57.634,336.709 57.801 C 337.649 57.968,338.514 58.261,338.632 58.453 C 338.751 58.644,339.377 58.800,340.024 58.800 C 340.671 58.800,341.200 58.980,341.200 59.200 C 341.200 59.420,341.751 59.600,342.424 59.600 C 343.137 59.600,343.544 59.767,343.400 60.000 C 343.264 60.220,343.523 60.400,343.976 60.400 C 344.429 60.400,344.800 60.580,344.800 60.800 C 344.800 61.020,345.261 61.200,345.824 61.200 C 346.404 61.200,346.740 61.373,346.600 61.600 C 346.459 61.828,346.804 62.000,347.400 62.000 C 347.996 62.000,348.341 62.172,348.200 62.400 C 348.064 62.620,348.323 62.800,348.776 62.800 C 349.229 62.800,349.600 62.980,349.600 63.200 C 349.600 63.420,349.960 63.600,350.400 63.600 C 350.840 63.600,351.200 63.759,351.200 63.953 C 351.200 64.148,351.515 64.407,351.900 64.529 C 352.967 64.867,354.814 66.076,356.133 67.300 C 356.785 67.905,357.446 68.400,357.601 68.400 C 357.757 68.400,358.705 69.165,359.710 70.100 C 364.321 74.394,365.603 75.466,365.856 75.241 C 366.006 75.109,366.011 75.206,365.867 75.458 C 365.723 75.710,366.413 76.735,367.402 77.739 C 368.391 78.742,369.200 79.761,369.200 80.005 C 369.200 80.248,369.408 80.319,369.662 80.162 C 369.938 79.991,370.015 80.051,369.854 80.312 C 369.706 80.552,370.038 81.202,370.592 81.756 C 371.147 82.310,371.600 82.918,371.600 83.106 C 371.600 83.295,371.915 83.807,372.300 84.245 C 373.300 85.382,374.000 86.688,374.000 87.418 C 374.000 87.764,374.180 87.936,374.400 87.800 C 374.620 87.664,374.800 87.923,374.800 88.376 C 374.800 88.829,374.980 89.200,375.200 89.200 C 375.420 89.200,375.569 89.335,375.531 89.500 C 375.493 89.665,375.804 90.610,376.223 91.600 C 376.641 92.590,376.942 93.535,376.892 93.700 C 376.841 93.865,376.959 94.000,377.153 94.000 C 377.521 94.000,377.955 95.089,378.267 96.800 C 378.367 97.350,378.618 97.971,378.825 98.180 C 379.031 98.389,379.200 99.053,379.200 99.656 C 379.200 100.259,379.380 100.864,379.600 101.000 C 379.820 101.136,380.000 101.766,380.000 102.400 C 380.000 103.034,380.180 103.664,380.400 103.800 C 380.620 103.936,380.800 104.922,380.800 105.990 C 380.800 107.059,380.974 107.993,381.187 108.067 C 381.402 108.140,381.599 110.208,381.629 112.698 C 381.659 115.172,381.829 117.106,382.007 116.996 C 382.362 116.776,382.317 117.567,381.938 118.200 C 381.806 118.420,381.665 120.310,381.625 122.400 C 381.585 124.490,381.383 126.371,381.176 126.580 C 380.969 126.789,380.800 127.824,380.800 128.880 C 380.800 129.936,380.620 130.800,380.400 130.800 C 380.180 130.800,380.000 131.419,380.000 132.176 C 380.000 132.933,379.820 133.664,379.600 133.800 C 379.380 133.936,379.200 134.566,379.200 135.200 C 379.200 135.834,379.020 136.464,378.800 136.600 C 378.580 136.736,378.400 137.287,378.400 137.824 C 378.400 138.361,378.220 138.800,378.000 138.800 C 377.780 138.800,377.600 139.124,377.600 139.520 C 377.600 139.916,377.425 140.415,377.211 140.629 C 376.998 140.842,376.755 141.373,376.673 141.809 C 376.590 142.244,376.286 143.140,375.997 143.800 C 375.707 144.460,375.500 145.135,375.535 145.300 C 375.571 145.465,375.420 145.600,375.200 145.600 C 374.980 145.600,374.800 145.971,374.800 146.424 C 374.800 146.877,374.658 147.160,374.485 147.052 C 374.312 146.945,373.918 147.430,373.609 148.129 C 373.301 148.828,372.811 149.640,372.521 149.932 C 372.230 150.225,372.112 150.658,372.258 150.894 C 372.415 151.149,372.336 151.207,372.062 151.038 C 371.788 150.869,371.600 151.007,371.600 151.376 C 371.600 151.719,371.420 152.000,371.200 152.000 C 370.980 152.000,370.800 152.248,370.800 152.552 C 370.800 152.855,370.080 153.845,369.200 154.752 C 368.320 155.659,367.600 156.581,367.600 156.800 C 367.600 157.020,367.420 157.200,367.200 157.200 C 366.980 157.200,366.800 157.372,366.800 157.582 C 366.800 157.792,366.350 158.414,365.800 158.964 C 365.250 159.514,364.800 159.874,364.800 159.764 C 364.800 159.654,363.832 160.517,362.648 161.682 C 358.890 165.381,357.204 166.800,356.570 166.800 C 356.230 166.800,356.064 166.980,356.200 167.200 C 356.336 167.420,356.167 167.600,355.824 167.600 C 355.481 167.600,355.200 167.780,355.200 168.000 C 355.200 168.220,354.919 168.400,354.576 168.400 C 354.207 168.400,354.069 168.588,354.238 168.862 C 354.407 169.136,354.349 169.215,354.094 169.058 C 353.858 168.912,353.393 169.064,353.061 169.396 C 352.729 169.728,352.257 170.000,352.012 170.000 C 351.767 170.000,351.180 170.360,350.708 170.800 C 350.236 171.240,349.613 171.600,349.325 171.600 C 349.036 171.600,348.800 171.780,348.800 172.000 C 348.800 172.220,348.440 172.400,348.000 172.400 C 347.560 172.400,347.200 172.580,347.200 172.800 C 347.200 173.020,346.851 173.200,346.424 173.200 C 345.997 173.200,345.536 173.380,345.400 173.600 C 345.264 173.820,344.803 174.000,344.376 174.000 C 343.949 174.000,343.600 174.180,343.600 174.400 C 343.600 174.620,343.270 174.800,342.867 174.800 C 342.463 174.800,342.010 174.924,341.859 175.075 C 341.707 175.226,341.272 175.401,340.892 175.464 C 338.600 175.845,337.565 176.134,337.371 176.446 C 337.251 176.641,336.544 176.800,335.800 176.800 C 335.056 176.800,334.336 176.980,334.200 177.200 C 334.064 177.420,333.153 177.600,332.176 177.600 C 331.199 177.600,330.400 177.780,330.400 178.000 C 330.400 178.235,329.008 178.400,327.024 178.400 C 325.167 178.400,323.536 178.580,323.400 178.800 C 323.264 179.020,321.914 179.200,320.400 179.200 C 318.886 179.200,317.536 179.020,317.400 178.800 C 317.264 178.580,315.633 178.400,313.776 178.400 C 311.792 178.400,310.400 178.235,310.400 178.000 C 310.400 177.780,309.601 177.600,308.624 177.600 C 307.647 177.600,306.736 177.420,306.600 177.200 C 306.464 176.980,305.821 176.800,305.171 176.800 C 304.521 176.800,303.677 176.637,303.295 176.437 C 302.378 175.958,298.459 174.800,297.754 174.800 C 297.449 174.800,297.200 174.609,297.200 174.376 C 297.200 174.143,297.035 174.055,296.832 174.180 C 296.630 174.305,296.225 174.181,295.932 173.904 C 295.640 173.627,295.070 173.344,294.668 173.275 C 293.884 173.141,291.132 171.688,290.800 171.233 C 290.690 171.082,289.950 170.656,289.155 170.287 C 288.360 169.917,287.483 169.341,287.206 169.007 C 286.929 168.673,286.454 168.400,286.151 168.400 C 285.848 168.400,285.600 168.220,285.600 168.000 C 285.600 167.780,285.319 167.600,284.976 167.600 C 284.633 167.600,284.464 167.420,284.600 167.200 C 284.736 166.980,284.592 166.800,284.279 166.800 C 283.967 166.800,282.841 165.990,281.778 165.000 C 280.715 164.010,279.727 163.200,279.582 163.200 C 279.438 163.200,278.103 162.030,276.615 160.600 C 275.128 159.170,274.028 158.000,274.171 158.000 C 274.448 158.000,274.347 157.871,272.185 155.450 C 271.423 154.597,270.800 153.718,270.800 153.497 C 270.800 153.275,270.451 152.791,270.025 152.422 C 269.599 152.052,269.194 151.491,269.125 151.175 C 269.056 150.859,268.716 150.330,268.370 150.000 C 268.023 149.670,267.484 148.815,267.172 148.100 C 266.860 147.385,266.497 146.800,266.366 146.800 C 266.235 146.800,265.892 146.086,265.604 145.213 C 265.316 144.341,264.928 143.721,264.740 143.837 C 264.553 143.953,264.400 143.587,264.400 143.024 C 264.400 142.461,264.220 142.000,264.000 142.000 C 263.780 142.000,263.600 141.640,263.600 141.200 C 263.600 140.760,263.420 140.400,263.200 140.400 C 262.980 140.400,262.800 140.051,262.800 139.624 C 262.800 139.197,262.620 138.736,262.400 138.600 C 262.180 138.464,262.000 137.723,262.000 136.953 C 262.000 136.121,261.838 135.653,261.600 135.800 C 261.362 135.947,261.200 135.471,261.200 134.624 C 261.200 133.841,261.020 133.200,260.800 133.200 C 260.580 133.200,260.400 132.469,260.400 131.576 C 260.400 130.596,260.242 130.051,260.000 130.200 C 259.752 130.353,259.600 129.612,259.600 128.247 C 259.600 127.037,259.420 125.936,259.200 125.800 C 258.954 125.648,258.800 122.270,258.800 117.000 C 258.800 111.730,258.954 108.352,259.200 108.200 C 259.420 108.064,259.600 107.164,259.600 106.200 C 259.600 105.236,259.780 104.336,260.000 104.200 C 260.220 104.064,260.400 103.333,260.400 102.576 C 260.400 101.819,260.580 101.200,260.800 101.200 C 261.020 101.200,261.200 100.660,261.200 100.000 C 261.200 99.340,261.342 98.800,261.515 98.800 C 261.688 98.800,261.860 98.398,261.897 97.907 C 261.959 97.087,262.315 96.137,263.247 94.305 C 263.441 93.923,263.600 93.338,263.600 93.005 C 263.600 92.672,263.780 92.400,264.000 92.400 C 264.220 92.400,264.400 92.040,264.400 91.600 C 264.400 91.160,264.546 90.800,264.725 90.800 C 264.904 90.800,265.298 90.170,265.600 89.400 C 265.902 88.630,266.296 88.000,266.475 88.000 C 266.654 88.000,266.800 87.662,266.800 87.249 C 266.800 86.836,267.073 86.271,267.407 85.994 C 267.741 85.717,268.317 84.840,268.687 84.045 C 269.057 83.250,269.683 82.309,270.080 81.953 C 270.476 81.597,270.800 81.194,270.800 81.058 C 270.800 80.769,271.818 79.463,273.082 78.130 C 273.567 77.619,273.848 77.200,273.707 77.200 C 273.384 77.200,279.050 71.593,279.482 71.485 C 279.657 71.441,280.497 70.729,281.348 69.903 C 282.200 69.076,283.101 68.400,283.352 68.400 C 283.603 68.400,284.032 68.040,284.307 67.600 C 284.582 67.160,285.086 66.800,285.427 66.800 C 285.768 66.800,285.955 66.650,285.842 66.468 C 285.729 66.285,286.258 65.891,287.018 65.593 C 287.778 65.295,288.400 64.933,288.400 64.788 C 288.400 64.644,289.255 64.092,290.300 63.563 C 291.345 63.033,292.260 62.465,292.333 62.300 C 292.407 62.135,292.812 62.000,293.233 62.000 C 293.655 62.000,294.000 61.820,294.000 61.600 C 294.000 61.380,294.360 61.200,294.800 61.200 C 295.240 61.200,295.600 61.020,295.600 60.800 C 295.600 60.580,296.039 60.400,296.576 60.400 C 297.113 60.400,297.664 60.220,297.800 60.000 C 297.936 59.780,298.397 59.600,298.824 59.600 C 299.251 59.600,299.600 59.440,299.600 59.245 C 299.600 59.050,300.095 58.795,300.700 58.678 C 301.305 58.561,302.610 58.247,303.600 57.981 C 304.590 57.715,305.711 57.509,306.092 57.523 C 306.473 57.537,306.888 57.381,307.016 57.175 C 307.143 56.969,308.126 56.800,309.200 56.800 C 310.274 56.800,311.264 56.620,311.400 56.400 C 311.714 55.893,328.888 55.856,329.420 56.361 M313.778 74.364 C 313.902 74.565,312.967 74.813,311.702 74.916 C 308.624 75.167,307.563 75.378,306.496 75.949 C 306.003 76.212,305.600 76.342,305.600 76.238 C 305.600 76.133,305.118 76.298,304.529 76.603 C 303.939 76.909,303.309 77.068,303.129 76.956 C 302.948 76.844,302.799 76.898,302.797 77.076 C 302.793 77.454,300.880 78.400,300.120 78.400 C 299.834 78.400,299.600 78.580,299.600 78.800 C 299.600 79.020,299.240 79.200,298.800 79.200 C 298.360 79.200,298.000 79.380,298.000 79.600 C 298.000 79.820,297.758 80.000,297.462 80.000 C 297.166 80.000,296.598 80.360,296.200 80.800 C 295.802 81.240,295.304 81.600,295.094 81.600 C 294.884 81.600,293.936 82.365,292.988 83.300 C 290.407 85.844,289.270 86.733,288.955 86.453 C 288.799 86.314,288.785 86.399,288.923 86.642 C 289.062 86.884,288.371 87.923,287.387 88.949 C 286.404 89.975,285.600 91.002,285.600 91.231 C 285.600 91.460,285.416 91.533,285.190 91.394 C 284.965 91.255,284.830 91.318,284.890 91.535 C 285.012 91.972,284.180 93.334,283.100 94.466 C 282.715 94.870,282.400 95.344,282.400 95.520 C 282.400 96.100,281.406 97.994,281.100 97.997 C 280.935 97.999,280.800 98.360,280.800 98.800 C 280.800 99.240,280.620 99.600,280.400 99.600 C 280.180 99.600,280.000 99.949,280.000 100.376 C 280.000 100.803,279.820 101.264,279.600 101.400 C 279.380 101.536,279.200 102.087,279.200 102.624 C 279.200 103.161,279.058 103.600,278.885 103.600 C 278.712 103.600,278.526 104.182,278.472 104.893 C 278.417 105.605,278.199 106.361,277.987 106.573 C 277.774 106.786,277.600 107.824,277.600 108.880 C 277.600 109.936,277.444 110.800,277.253 110.800 C 277.062 110.800,276.872 113.680,276.831 117.200 C 276.789 120.720,276.907 123.600,277.092 123.600 C 277.278 123.600,277.469 124.185,277.517 124.900 C 277.628 126.574,278.456 130.071,278.875 130.640 C 279.053 130.883,279.239 131.558,279.287 132.140 C 279.335 132.723,279.515 133.200,279.687 133.200 C 279.859 133.200,280.000 133.465,280.000 133.788 C 280.000 134.111,280.360 135.017,280.800 135.800 C 281.240 136.583,281.600 137.455,281.600 137.737 C 281.600 138.019,281.960 138.636,282.400 139.108 C 282.840 139.580,283.200 140.154,283.200 140.383 C 283.200 140.612,283.380 140.800,283.600 140.800 C 283.820 140.800,284.000 141.081,284.000 141.424 C 284.000 141.767,284.180 141.936,284.400 141.800 C 284.620 141.664,284.800 141.884,284.800 142.288 C 284.800 142.693,285.160 143.283,285.600 143.600 C 286.040 143.917,286.400 144.371,286.400 144.608 C 286.400 145.193,290.635 149.600,291.198 149.600 C 291.445 149.600,291.536 149.780,291.400 150.000 C 291.264 150.220,291.446 150.400,291.805 150.400 C 292.568 150.400,293.675 151.392,293.314 151.752 C 293.178 151.889,293.367 152.000,293.733 152.000 C 294.100 152.000,294.400 152.180,294.400 152.400 C 294.400 152.620,294.681 152.800,295.024 152.800 C 295.367 152.800,295.536 152.980,295.400 153.200 C 295.264 153.420,295.433 153.600,295.776 153.600 C 296.119 153.600,296.400 153.780,296.400 154.000 C 296.400 154.220,296.760 154.400,297.200 154.400 C 297.640 154.400,298.000 154.580,298.000 154.800 C 298.000 155.020,298.270 155.200,298.600 155.200 C 298.930 155.200,299.200 155.380,299.200 155.600 C 299.200 155.820,299.560 156.000,300.000 156.000 C 300.440 156.000,300.800 156.180,300.800 156.400 C 300.800 156.620,300.935 156.762,301.100 156.715 C 301.265 156.668,301.850 156.879,302.400 157.183 C 302.950 157.487,303.444 157.709,303.498 157.677 C 303.780 157.511,306.047 158.153,306.232 158.452 C 306.350 158.643,306.966 158.800,307.600 158.800 C 308.234 158.800,308.864 158.980,309.000 159.200 C 309.136 159.420,309.856 159.600,310.600 159.600 C 311.344 159.600,312.064 159.780,312.200 160.000 C 312.351 160.245,315.537 160.400,320.424 160.400 C 325.475 160.400,328.400 160.253,328.400 160.000 C 328.400 159.780,329.109 159.600,329.976 159.600 C 330.843 159.600,331.664 159.420,331.800 159.200 C 331.936 158.980,332.566 158.800,333.200 158.800 C 333.834 158.800,334.450 158.643,334.568 158.452 C 334.744 158.166,335.636 157.870,337.604 157.444 C 338.547 157.240,341.600 155.768,341.600 155.518 C 341.600 155.343,341.836 155.200,342.125 155.200 C 342.413 155.200,343.036 154.840,343.508 154.400 C 343.980 153.960,344.556 153.600,344.787 153.600 C 345.018 153.600,345.772 153.060,346.463 152.400 C 347.154 151.740,347.973 151.200,348.283 151.200 C 348.593 151.200,348.736 151.020,348.600 150.800 C 348.464 150.580,348.532 150.400,348.750 150.400 C 349.284 150.400,353.564 146.097,353.296 145.830 C 353.180 145.714,353.381 145.505,353.743 145.367 C 354.104 145.228,354.400 144.944,354.400 144.736 C 354.400 144.527,354.939 143.781,355.598 143.078 C 356.257 142.375,356.797 141.652,356.798 141.471 C 356.799 141.291,357.070 140.873,357.400 140.543 C 357.730 140.213,358.000 139.585,358.000 139.148 C 358.000 138.711,358.180 138.464,358.400 138.600 C 358.620 138.736,358.800 138.572,358.800 138.236 C 358.800 137.899,359.160 136.983,359.600 136.200 C 360.040 135.417,360.400 134.511,360.400 134.188 C 360.400 133.865,360.580 133.600,360.800 133.600 C 361.020 133.600,361.200 133.150,361.200 132.600 C 361.200 132.050,361.343 131.600,361.518 131.600 C 361.693 131.600,361.881 130.925,361.936 130.100 C 361.990 129.275,362.207 128.540,362.418 128.467 C 362.628 128.393,362.800 127.639,362.800 126.790 C 362.800 125.942,362.980 125.136,363.200 125.000 C 363.444 124.849,363.600 121.796,363.600 117.176 C 363.600 112.392,363.453 109.600,363.200 109.600 C 362.980 109.600,362.800 108.891,362.800 108.024 C 362.800 107.157,362.620 106.336,362.400 106.200 C 362.180 106.064,362.000 105.344,362.000 104.600 C 362.000 103.856,361.820 103.136,361.600 103.000 C 361.380 102.864,361.200 102.403,361.200 101.976 C 361.200 101.549,361.020 101.200,360.800 101.200 C 360.580 101.200,360.396 100.795,360.391 100.300 C 360.386 99.805,360.030 98.950,359.600 98.400 C 359.170 97.850,358.814 96.965,358.809 96.433 C 358.804 95.902,358.688 95.578,358.552 95.715 C 358.415 95.852,357.859 95.072,357.316 93.982 C 356.773 92.892,356.135 92.000,355.898 92.000 C 355.661 92.000,355.576 91.891,355.709 91.758 C 355.842 91.624,355.557 91.111,355.076 90.616 C 353.640 89.142,352.390 87.600,352.631 87.600 C 352.755 87.600,352.587 87.330,352.257 87.000 C 351.927 86.670,351.454 86.400,351.205 86.400 C 350.956 86.400,350.864 86.220,351.000 86.000 C 351.136 85.780,351.006 85.600,350.711 85.600 C 350.416 85.600,349.263 84.745,348.149 83.700 C 347.035 82.655,345.904 81.751,345.635 81.691 C 345.367 81.632,344.766 81.227,344.299 80.791 C 343.831 80.356,343.213 80.000,342.925 80.000 C 342.636 80.000,342.400 79.865,342.400 79.699 C 342.400 79.272,336.401 76.372,335.507 76.367 C 335.346 76.366,334.591 76.105,333.830 75.787 C 333.068 75.468,332.165 75.315,331.822 75.447 C 331.480 75.578,331.200 75.486,331.200 75.243 C 331.200 74.973,330.342 74.800,329.000 74.800 C 327.790 74.800,326.800 74.620,326.800 74.400 C 326.800 74.149,324.325 74.000,320.176 74.000 C 316.294 74.000,313.646 74.151,313.778 74.364 M325.000 92.800 C 324.853 93.038,325.329 93.200,326.176 93.200 C 326.959 93.200,327.600 93.368,327.600 93.573 C 327.600 93.779,328.087 94.004,328.682 94.073 C 329.661 94.188,328.246 95.724,313.674 110.359 C 304.826 119.247,297.544 126.447,297.493 126.359 C 296.640 124.895,296.400 124.250,296.400 123.429 C 296.400 122.889,296.220 122.336,296.000 122.200 C 295.770 122.058,295.600 119.937,295.600 117.200 C 295.600 114.463,295.770 112.342,296.000 112.200 C 296.220 112.064,296.400 111.423,296.400 110.776 C 296.400 110.129,296.580 109.600,296.800 109.600 C 297.020 109.600,297.200 109.150,297.200 108.600 C 297.200 108.050,297.380 107.600,297.600 107.600 C 297.820 107.600,298.000 107.351,298.000 107.046 C 298.000 106.216,299.040 104.373,299.339 104.673 C 299.483 104.816,299.600 104.661,299.600 104.329 C 299.600 103.996,299.960 103.398,300.400 103.000 C 300.840 102.602,301.200 102.119,301.200 101.927 C 301.200 101.392,304.473 98.271,305.705 97.632 C 306.307 97.320,306.800 96.915,306.800 96.732 C 306.800 96.550,307.030 96.400,307.312 96.400 C 307.593 96.400,308.083 96.040,308.400 95.600 C 308.717 95.160,309.376 94.800,309.865 94.800 C 310.353 94.800,310.864 94.620,311.000 94.400 C 311.136 94.180,311.582 94.000,311.990 94.000 C 312.399 94.000,312.793 93.828,312.867 93.618 C 312.940 93.407,313.675 93.190,314.500 93.136 C 315.325 93.081,316.000 92.893,316.000 92.718 C 316.000 92.543,318.081 92.400,320.624 92.400 C 323.604 92.400,325.159 92.542,325.000 92.800 M343.536 109.019 C 343.791 109.579,344.000 110.379,344.000 110.795 C 344.000 111.212,344.180 111.664,344.400 111.800 C 344.853 112.080,344.963 122.103,344.518 122.548 C 344.363 122.703,344.177 123.318,344.105 123.915 C 344.033 124.512,343.530 125.872,342.987 126.937 C 342.444 128.002,342.000 129.127,342.000 129.437 C 342.000 129.747,341.832 130.000,341.627 130.000 C 341.422 130.000,341.138 130.365,340.996 130.811 C 340.689 131.781,335.429 137.200,334.796 137.200 C 334.552 137.200,334.481 137.408,334.638 137.662 C 334.807 137.936,334.749 138.015,334.494 137.858 C 334.258 137.712,333.793 137.864,333.461 138.196 C 333.129 138.528,332.574 138.800,332.229 138.800 C 331.883 138.800,331.600 138.980,331.600 139.200 C 331.600 139.420,331.240 139.600,330.800 139.600 C 330.360 139.600,330.000 139.780,330.000 140.000 C 330.000 140.220,329.640 140.400,329.200 140.400 C 328.760 140.400,328.400 140.580,328.400 140.800 C 328.400 141.020,327.961 141.200,327.424 141.200 C 326.887 141.200,326.346 141.364,326.222 141.564 C 326.099 141.764,323.478 141.927,320.398 141.927 C 317.140 141.927,314.892 141.775,315.022 141.564 C 315.146 141.364,314.594 141.200,313.795 141.200 C 309.831 141.200,309.447 141.714,325.500 125.497 C 325.665 125.330,329.081 121.955,333.092 117.997 C 337.102 114.039,340.313 110.800,340.226 110.800 C 339.988 110.800,342.565 108.066,342.836 108.031 C 342.965 108.014,343.280 108.458,343.536 109.019 " stroke="none" fill="#ff0000" fill-rule="evenodd"></path><path id="path1" d="M38.200 93.599 C 38.064 93.820,37.243 94.000,36.376 94.000 C 35.509 94.000,34.800 94.180,34.800 94.400 C 34.800 94.620,34.361 94.800,33.824 94.800 C 33.287 94.800,32.736 94.980,32.600 95.200 C 32.464 95.420,32.003 95.600,31.576 95.600 C 31.149 95.600,30.800 95.780,30.800 96.000 C 30.800 96.220,30.440 96.400,30.000 96.400 C 29.560 96.400,29.200 96.580,29.200 96.800 C 29.200 97.020,28.930 97.200,28.600 97.200 C 28.270 97.200,28.000 97.380,28.000 97.600 C 28.000 97.820,27.812 98.000,27.582 98.000 C 27.352 98.000,26.742 98.405,26.228 98.900 C 25.713 99.395,24.645 100.340,23.855 101.000 C 23.064 101.660,22.413 102.398,22.409 102.641 C 22.404 102.883,21.860 103.646,21.200 104.337 C 20.540 105.028,20.000 105.864,20.000 106.196 C 20.000 106.528,19.820 106.800,19.600 106.800 C 19.380 106.800,19.200 107.160,19.200 107.600 C 19.200 108.040,19.020 108.400,18.800 108.400 C 18.580 108.400,18.400 108.670,18.400 109.000 C 18.400 109.330,18.220 109.600,18.000 109.600 C 17.780 109.600,17.600 109.949,17.600 110.376 C 17.600 110.803,17.420 111.264,17.200 111.400 C 16.980 111.536,16.800 112.267,16.800 113.024 C 16.800 113.781,16.620 114.400,16.400 114.400 C 16.135 114.400,16.000 144.867,16.000 205.000 L 16.000 295.600 10.600 295.600 C 7.267 295.600,5.200 295.753,5.200 296.000 C 5.200 296.220,4.840 296.400,4.400 296.400 C 3.960 296.400,3.599 296.535,3.599 296.700 C 3.598 296.865,3.059 297.360,2.400 297.800 C 1.741 298.240,1.202 298.748,1.201 298.929 C 1.201 299.109,0.915 299.542,0.568 299.890 C -0.275 300.732,-0.147 331.218,0.700 331.500 C 0.975 331.592,1.200 332.192,1.200 332.833 C 1.200 333.475,1.380 334.000,1.600 334.000 C 1.820 334.000,2.000 334.540,2.000 335.200 C 2.000 335.860,2.180 336.400,2.400 336.400 C 2.620 336.400,2.800 336.760,2.800 337.200 C 2.800 337.640,2.980 338.000,3.200 338.000 C 3.420 338.000,3.600 338.360,3.600 338.800 C 3.600 339.240,3.780 339.600,4.000 339.600 C 4.220 339.600,4.400 339.960,4.400 340.400 C 4.400 340.840,4.580 341.200,4.800 341.200 C 5.020 341.200,5.200 341.470,5.200 341.800 C 5.200 342.130,5.380 342.400,5.600 342.400 C 5.820 342.400,6.000 342.672,6.000 343.004 C 6.000 343.336,6.540 344.172,7.200 344.863 C 7.860 345.554,8.400 346.347,8.400 346.626 C 8.400 347.250,15.447 354.400,16.063 354.400 C 16.307 354.400,16.799 354.715,17.157 355.100 C 17.857 355.852,19.082 356.617,21.000 357.499 C 21.660 357.803,22.513 358.220,22.895 358.426 C 23.277 358.632,23.862 358.800,24.195 358.800 C 24.528 358.800,24.800 358.980,24.800 359.200 C 24.800 359.420,25.160 359.600,25.600 359.600 C 26.040 359.600,26.400 359.780,26.400 360.000 C 26.400 360.220,26.850 360.400,27.400 360.400 C 27.950 360.400,28.400 360.580,28.400 360.800 C 28.400 361.020,29.030 361.200,29.800 361.200 C 30.570 361.200,31.200 361.380,31.200 361.600 C 31.200 361.820,32.010 362.000,33.000 362.000 C 33.990 362.000,34.800 362.180,34.800 362.400 C 34.800 362.666,81.000 362.800,172.600 362.800 C 264.200 362.800,310.400 362.666,310.400 362.400 C 310.400 362.180,311.300 362.000,312.400 362.000 C 313.500 362.000,314.400 361.820,314.400 361.600 C 314.400 361.380,314.940 361.200,315.600 361.200 C 316.260 361.200,316.800 361.020,316.800 360.800 C 316.800 360.580,317.340 360.400,318.000 360.400 C 318.660 360.400,319.200 360.220,319.200 360.000 C 319.200 359.780,319.560 359.600,320.000 359.600 C 320.440 359.600,320.800 359.420,320.800 359.200 C 320.800 358.980,321.149 358.800,321.576 358.800 C 322.003 358.800,322.455 358.634,322.581 358.431 C 322.706 358.228,323.347 357.943,324.005 357.799 C 324.662 357.655,325.200 357.371,325.200 357.168 C 325.200 356.966,325.425 356.800,325.700 356.800 C 325.975 356.799,326.723 356.349,327.362 355.800 C 328.001 355.250,328.682 354.800,328.875 354.800 C 329.423 354.800,338.000 346.035,338.000 345.475 C 338.000 345.201,338.360 344.717,338.800 344.400 C 339.240 344.083,339.600 343.503,339.600 343.112 C 339.600 342.720,339.748 342.400,339.930 342.400 C 340.296 342.400,342.400 338.041,342.400 337.282 C 342.400 337.017,342.580 336.800,342.800 336.800 C 343.020 336.800,343.200 336.350,343.200 335.800 C 343.200 335.250,343.380 334.800,343.600 334.800 C 343.820 334.800,344.000 334.260,344.000 333.600 C 344.000 332.940,344.180 332.400,344.400 332.400 C 344.620 332.400,344.800 331.680,344.800 330.800 C 344.800 329.920,344.980 329.200,345.200 329.200 C 345.433 329.200,345.600 327.875,345.600 326.024 C 345.600 324.277,345.780 322.736,346.000 322.600 C 346.248 322.447,346.400 318.804,346.400 313.000 C 346.400 307.196,346.248 303.553,346.000 303.400 C 345.780 303.264,345.600 302.533,345.600 301.776 C 345.600 301.019,345.420 300.400,345.200 300.400 C 344.980 300.400,344.800 300.175,344.800 299.900 C 344.799 299.125,342.984 297.200,342.253 297.200 C 341.894 297.200,341.599 297.065,341.597 296.900 C 341.588 296.066,339.124 295.600,334.720 295.600 L 330.000 295.600 330.000 246.400 L 330.000 197.200 320.600 197.200 L 311.200 197.200 311.200 246.400 L 311.200 295.600 257.000 295.600 C 221.133 295.600,202.800 295.735,202.800 296.000 C 202.800 296.220,202.440 296.400,202.000 296.400 C 201.560 296.400,201.200 296.580,201.200 296.800 C 201.200 297.020,200.939 297.200,200.620 297.200 C 200.302 297.200,199.537 297.875,198.920 298.700 C 198.304 299.525,197.665 300.260,197.500 300.333 C 197.335 300.407,197.200 301.161,197.200 302.010 C 197.200 302.858,197.020 303.664,196.800 303.800 C 196.569 303.942,196.400 306.071,196.400 308.824 L 196.400 313.600 172.600 313.600 L 148.800 313.600 148.800 308.200 C 148.800 304.867,148.647 302.800,148.400 302.800 C 148.180 302.800,148.000 302.260,148.000 301.600 C 148.000 300.940,147.820 300.400,147.600 300.400 C 147.380 300.400,147.200 300.122,147.200 299.782 C 147.200 298.982,145.418 297.200,144.618 297.200 C 144.278 297.200,144.000 297.020,144.000 296.800 C 144.000 296.580,143.640 296.400,143.200 296.400 C 142.760 296.400,142.400 296.220,142.400 296.000 C 142.400 295.735,124.200 295.600,88.600 295.600 L 34.800 295.600 34.809 206.900 C 34.818 119.487,34.829 118.185,35.600 117.200 C 36.030 116.650,36.386 116.057,36.391 115.882 C 36.407 115.307,38.189 113.760,39.507 113.177 C 40.218 112.862,40.800 112.469,40.800 112.302 C 40.800 112.136,85.692 112.000,140.560 112.000 L 240.319 112.000 240.573 110.100 C 240.712 109.055,240.919 107.210,241.031 106.000 C 241.144 104.790,241.397 103.440,241.593 103.000 C 241.790 102.560,242.039 101.570,242.147 100.800 C 242.453 98.614,242.824 97.074,243.266 96.160 C 243.489 95.698,243.610 94.888,243.536 94.360 L 243.400 93.400 140.924 93.299 C 72.799 93.232,38.365 93.333,38.200 93.599 M116.600 132.000 C 116.464 132.220,115.823 132.400,115.176 132.400 C 114.529 132.400,114.000 132.580,114.000 132.800 C 114.000 133.020,113.806 133.200,113.569 133.200 C 112.561 133.200,110.036 136.472,109.427 138.566 C 108.468 141.865,108.488 189.405,109.450 192.713 C 110.219 195.359,113.372 198.800,115.027 198.800 C 115.562 198.800,116.000 198.980,116.000 199.200 C 116.000 199.426,117.133 199.600,118.600 199.600 C 120.067 199.600,121.200 199.426,121.200 199.200 C 121.200 198.980,121.650 198.800,122.200 198.800 C 122.750 198.800,123.200 198.620,123.200 198.400 C 123.200 198.180,123.386 198.000,123.613 198.000 C 124.246 198.000,126.800 195.305,126.800 194.637 C 126.800 194.313,126.980 193.936,127.200 193.800 C 127.450 193.645,127.605 189.482,127.613 182.676 L 127.625 171.800 128.513 172.846 C 130.276 174.926,130.746 175.552,131.232 176.468 C 131.503 176.981,132.057 177.691,132.463 178.047 C 132.868 178.403,133.200 178.948,133.200 179.259 C 133.200 179.569,133.560 180.083,134.000 180.400 C 134.440 180.717,134.800 181.257,134.800 181.600 C 134.800 181.943,135.160 182.483,135.600 182.800 C 136.040 183.117,136.400 183.657,136.400 184.000 C 136.400 184.343,136.760 184.883,137.200 185.200 C 137.640 185.517,138.000 186.007,138.000 186.288 C 138.000 186.570,138.180 186.800,138.400 186.800 C 138.620 186.800,138.800 187.070,138.800 187.400 C 138.800 187.730,138.950 188.000,139.132 188.000 C 139.315 188.000,139.719 188.495,140.030 189.100 C 140.340 189.705,140.885 190.470,141.240 190.800 C 141.595 191.130,142.013 191.805,142.170 192.300 C 142.326 192.795,142.610 193.200,142.800 193.200 C 142.990 193.200,143.257 193.551,143.394 193.980 C 143.751 195.105,145.811 197.200,146.560 197.200 C 146.912 197.200,147.200 197.380,147.200 197.600 C 147.200 197.820,147.560 198.000,148.000 198.000 C 148.440 198.000,148.800 198.180,148.800 198.400 C 148.800 199.169,155.040 198.876,156.533 198.038 C 159.009 196.647,159.600 196.212,159.600 195.779 C 159.600 195.544,159.960 194.964,160.400 194.492 C 160.840 194.020,161.200 193.356,161.200 193.017 C 161.200 192.678,161.380 192.400,161.600 192.400 C 161.863 192.400,162.000 183.467,162.000 166.400 C 162.000 149.333,161.863 140.400,161.600 140.400 C 161.380 140.400,161.200 139.680,161.200 138.800 C 161.200 137.920,161.020 137.200,160.800 137.200 C 160.580 137.200,160.400 136.912,160.400 136.560 C 160.400 135.711,156.867 132.400,155.960 132.400 C 155.568 132.400,155.136 132.220,155.000 132.000 C 154.695 131.506,150.644 131.470,149.695 131.953 C 149.313 132.148,148.461 132.553,147.803 132.853 C 146.278 133.550,144.000 135.786,144.000 136.587 C 144.000 136.924,143.820 137.200,143.600 137.200 C 143.343 137.200,143.200 141.200,143.200 148.400 C 143.200 155.600,143.057 159.600,142.800 159.600 C 142.580 159.600,142.400 159.330,142.400 159.000 C 142.400 158.670,142.265 158.396,142.100 158.392 C 141.935 158.388,141.268 157.488,140.617 156.392 C 139.967 155.296,139.292 154.400,139.117 154.400 C 138.943 154.400,138.800 154.106,138.800 153.747 C 138.800 153.388,138.484 152.803,138.097 152.447 C 137.711 152.091,137.140 151.305,136.830 150.700 C 136.519 150.095,136.115 149.600,135.932 149.600 C 135.750 149.600,135.600 149.357,135.600 149.059 C 135.600 148.762,135.060 147.954,134.400 147.263 C 133.740 146.572,133.200 145.775,133.200 145.492 C 133.200 145.209,132.840 144.717,132.400 144.400 C 131.960 144.083,131.600 143.633,131.600 143.400 C 131.600 143.167,131.240 142.717,130.800 142.400 C 130.360 142.083,130.000 141.543,130.000 141.200 C 130.000 140.857,129.640 140.317,129.200 140.000 C 128.760 139.683,128.400 139.143,128.400 138.800 C 128.400 138.457,128.040 137.917,127.600 137.600 C 127.160 137.283,126.800 136.828,126.800 136.590 C 126.800 135.411,123.084 132.400,121.629 132.400 C 121.199 132.400,120.736 132.220,120.600 132.000 C 120.464 131.780,119.564 131.600,118.600 131.600 C 117.636 131.600,116.736 131.780,116.600 132.000 M198.000 132.000 C 198.000 132.220,197.100 132.400,196.000 132.400 C 194.900 132.400,194.000 132.580,194.000 132.800 C 194.000 133.020,193.370 133.200,192.600 133.200 C 191.830 133.200,191.200 133.380,191.200 133.600 C 191.200 133.820,190.761 134.000,190.224 134.000 C 189.687 134.000,189.136 134.180,189.000 134.400 C 188.864 134.620,188.403 134.800,187.976 134.800 C 187.549 134.800,187.200 134.980,187.200 135.200 C 187.200 135.420,186.880 135.600,186.488 135.600 C 186.097 135.600,185.517 135.960,185.200 136.400 C 184.883 136.840,184.343 137.200,184.000 137.200 C 183.657 137.200,183.117 137.560,182.800 138.000 C 182.483 138.440,182.000 138.800,181.726 138.800 C 181.033 138.800,176.269 143.521,175.369 145.100 C 174.961 145.815,174.486 146.400,174.314 146.400 C 174.141 146.400,174.000 146.720,174.000 147.112 C 174.000 147.503,173.640 148.083,173.200 148.400 C 172.760 148.717,172.400 149.297,172.400 149.688 C 172.400 150.080,172.220 150.400,172.000 150.400 C 171.780 150.400,171.600 150.839,171.600 151.376 C 171.600 151.913,171.420 152.464,171.200 152.600 C 170.980 152.736,170.800 153.197,170.800 153.624 C 170.800 154.051,170.620 154.400,170.400 154.400 C 170.180 154.400,170.000 155.120,170.000 156.000 C 170.000 156.880,169.820 157.600,169.600 157.600 C 169.380 157.600,169.200 158.579,169.200 159.776 C 169.200 160.973,169.020 162.064,168.800 162.200 C 168.580 162.336,168.400 163.866,168.400 165.600 C 168.400 167.334,168.580 168.864,168.800 169.000 C 169.020 169.136,169.200 170.216,169.200 171.400 C 169.200 172.584,169.380 173.664,169.600 173.800 C 169.820 173.936,170.000 174.667,170.000 175.424 C 170.000 176.181,170.180 176.800,170.400 176.800 C 170.620 176.800,170.800 177.149,170.800 177.576 C 170.800 178.003,170.980 178.464,171.200 178.600 C 171.420 178.736,171.600 179.287,171.600 179.824 C 171.600 180.361,171.780 180.800,172.000 180.800 C 172.220 180.800,172.400 181.120,172.400 181.512 C 172.400 181.903,172.760 182.483,173.200 182.800 C 173.640 183.117,174.000 183.697,174.000 184.088 C 174.000 184.480,174.159 184.800,174.354 184.800 C 174.549 184.800,174.987 185.387,175.327 186.104 C 176.049 187.625,180.860 192.400,181.670 192.400 C 181.974 192.400,182.483 192.760,182.800 193.200 C 183.117 193.640,183.657 194.000,184.000 194.000 C 184.343 194.000,184.883 194.360,185.200 194.800 C 185.517 195.240,186.097 195.600,186.488 195.600 C 186.880 195.600,187.200 195.780,187.200 196.000 C 187.200 196.220,187.549 196.400,187.976 196.400 C 188.403 196.400,188.864 196.580,189.000 196.800 C 189.136 197.020,189.687 197.200,190.224 197.200 C 190.761 197.200,191.200 197.380,191.200 197.600 C 191.200 197.820,191.830 198.000,192.600 198.000 C 193.370 198.000,194.000 198.180,194.000 198.400 C 194.000 198.620,194.900 198.800,196.000 198.800 C 197.100 198.800,198.000 198.980,198.000 199.200 C 198.000 199.441,199.659 199.600,202.176 199.600 C 204.529 199.600,206.461 199.425,206.600 199.200 C 206.736 198.980,207.827 198.800,209.024 198.800 C 210.221 198.800,211.200 198.620,211.200 198.400 C 211.200 198.180,211.740 198.000,212.400 198.000 C 213.060 198.000,213.600 197.820,213.600 197.600 C 213.600 197.380,214.140 197.200,214.800 197.200 C 215.460 197.200,216.000 197.020,216.000 196.800 C 216.000 196.580,216.360 196.400,216.800 196.400 C 217.240 196.400,217.600 196.220,217.600 196.000 C 217.600 195.780,217.960 195.600,218.400 195.600 C 218.840 195.600,219.200 195.420,219.200 195.200 C 219.200 194.980,219.436 194.800,219.725 194.800 C 220.013 194.800,220.636 194.440,221.108 194.000 C 221.580 193.560,222.063 193.200,222.180 193.200 C 222.879 193.200,230.000 186.150,230.000 185.458 C 230.000 185.193,230.360 184.717,230.800 184.400 C 231.240 184.083,231.600 183.503,231.600 183.112 C 231.600 182.720,231.780 182.400,232.000 182.400 C 232.220 182.400,232.400 182.040,232.400 181.600 C 232.400 181.160,232.580 180.800,232.800 180.800 C 233.020 180.800,233.200 180.440,233.200 180.000 C 233.200 179.560,233.380 179.200,233.600 179.200 C 233.820 179.200,234.000 178.660,234.000 178.000 C 234.000 177.340,234.180 176.800,234.400 176.800 C 234.620 176.800,234.800 176.260,234.800 175.600 C 234.800 174.940,234.980 174.400,235.200 174.400 C 235.420 174.400,235.600 173.601,235.600 172.624 C 235.600 171.647,235.780 170.736,236.000 170.600 C 236.231 170.458,236.400 168.329,236.400 165.576 C 236.400 162.659,236.244 160.800,236.000 160.800 C 235.780 160.800,235.600 159.900,235.600 158.800 C 235.600 157.700,235.420 156.800,235.200 156.800 C 234.980 156.800,234.800 156.260,234.800 155.600 C 234.800 154.940,234.620 154.400,234.400 154.400 C 234.180 154.400,234.000 153.860,234.000 153.200 C 234.000 152.540,233.820 152.000,233.600 152.000 C 233.380 152.000,233.200 151.640,233.200 151.200 C 233.200 150.760,233.020 150.400,232.800 150.400 C 232.580 150.400,232.400 150.040,232.400 149.600 C 232.400 149.160,232.220 148.800,232.000 148.800 C 231.780 148.800,231.600 148.564,231.600 148.275 C 231.600 147.987,231.240 147.364,230.800 146.892 C 230.360 146.420,230.000 145.868,230.000 145.665 C 230.000 145.462,229.287 144.600,228.415 143.748 C 223.375 138.823,222.491 138.000,222.242 138.000 C 222.090 138.000,221.580 137.640,221.108 137.200 C 220.636 136.760,220.013 136.400,219.725 136.400 C 219.436 136.400,219.200 136.220,219.200 136.000 C 219.200 135.780,218.840 135.600,218.400 135.600 C 217.960 135.600,217.600 135.420,217.600 135.200 C 217.600 134.980,217.240 134.800,216.800 134.800 C 216.360 134.800,216.000 134.620,216.000 134.400 C 216.000 134.180,215.460 134.000,214.800 134.000 C 214.140 134.000,213.600 133.820,213.600 133.600 C 213.600 133.380,213.071 133.200,212.424 133.200 C 211.777 133.200,211.136 133.020,211.000 132.800 C 210.864 132.580,209.874 132.400,208.800 132.400 C 207.726 132.400,206.736 132.220,206.600 132.000 C 206.461 131.775,204.529 131.600,202.176 131.600 C 199.659 131.600,198.000 131.759,198.000 132.000 M204.600 150.800 C 204.736 151.020,205.467 151.200,206.224 151.200 C 206.981 151.200,207.600 151.380,207.600 151.600 C 207.600 151.820,207.960 152.000,208.400 152.000 C 208.840 152.000,209.200 152.180,209.200 152.400 C 209.200 152.620,209.379 152.800,209.597 152.800 C 210.498 152.800,215.200 157.415,215.200 158.300 C 215.200 158.575,215.380 158.800,215.600 158.800 C 215.820 158.800,216.000 159.160,216.000 159.600 C 216.000 160.040,216.180 160.400,216.400 160.400 C 216.620 160.400,216.800 160.940,216.800 161.600 C 216.800 162.260,216.980 162.800,217.200 162.800 C 217.429 162.800,217.600 164.000,217.600 165.600 C 217.600 167.200,217.429 168.400,217.200 168.400 C 216.980 168.400,216.800 168.940,216.800 169.600 C 216.800 170.260,216.620 170.800,216.400 170.800 C 216.180 170.800,216.000 171.160,216.000 171.600 C 216.000 172.040,215.820 172.400,215.600 172.400 C 215.380 172.400,215.200 172.699,215.200 173.065 C 215.200 173.836,210.521 178.400,209.731 178.400 C 209.439 178.400,209.200 178.580,209.200 178.800 C 209.200 179.020,208.840 179.200,208.400 179.200 C 207.960 179.200,207.600 179.380,207.600 179.600 C 207.600 179.820,206.981 180.000,206.224 180.000 C 205.467 180.000,204.736 180.180,204.600 180.400 C 204.464 180.620,203.474 180.800,202.400 180.800 C 201.326 180.800,200.336 180.620,200.200 180.400 C 200.064 180.180,199.333 180.000,198.576 180.000 C 197.819 180.000,197.200 179.820,197.200 179.600 C 197.200 179.380,196.840 179.200,196.400 179.200 C 195.960 179.200,195.600 179.020,195.600 178.800 C 195.600 178.580,195.306 178.400,194.946 178.400 C 194.127 178.400,189.600 173.836,189.600 173.010 C 189.600 172.674,189.420 172.400,189.200 172.400 C 188.980 172.400,188.800 172.051,188.800 171.624 C 188.800 171.197,188.620 170.736,188.400 170.600 C 188.180 170.464,188.000 169.733,188.000 168.976 C 188.000 168.219,187.820 167.600,187.600 167.600 C 187.380 167.600,187.200 166.801,187.200 165.824 C 187.200 164.847,187.380 163.936,187.600 163.800 C 187.820 163.664,188.000 162.944,188.000 162.200 C 188.000 161.456,188.180 160.736,188.400 160.600 C 188.620 160.464,188.800 160.003,188.800 159.576 C 188.800 159.149,188.980 158.800,189.200 158.800 C 189.420 158.800,189.600 158.563,189.600 158.274 C 189.600 157.506,194.209 152.800,194.961 152.800 C 195.312 152.800,195.600 152.620,195.600 152.400 C 195.600 152.180,195.960 152.000,196.400 152.000 C 196.840 152.000,197.200 151.820,197.200 151.600 C 197.200 151.380,197.819 151.200,198.576 151.200 C 199.333 151.200,200.064 151.020,200.200 150.800 C 200.336 150.580,201.326 150.400,202.400 150.400 C 203.474 150.400,204.464 150.580,204.600 150.800 M151.400 210.000 C 151.264 210.220,150.758 210.404,150.276 210.410 C 149.166 210.422,145.600 213.011,145.600 213.804 C 145.600 214.132,145.442 214.400,145.249 214.400 C 145.055 214.400,144.677 214.985,144.408 215.700 C 143.538 218.013,143.314 218.583,142.876 219.600 C 142.639 220.150,142.125 221.725,141.734 223.100 C 141.343 224.475,140.883 225.600,140.711 225.600 C 140.540 225.600,140.400 226.050,140.400 226.600 C 140.400 227.150,140.220 227.600,140.000 227.600 C 139.780 227.600,139.600 228.140,139.600 228.800 C 139.600 229.460,139.420 230.000,139.200 230.000 C 138.980 230.000,138.800 230.360,138.800 230.800 C 138.800 231.240,138.620 231.600,138.400 231.600 C 138.180 231.600,138.000 232.140,138.000 232.800 C 138.000 233.460,137.820 234.000,137.600 234.000 C 137.380 234.000,137.200 234.349,137.200 234.776 C 137.200 235.203,137.020 235.664,136.800 235.800 C 136.580 235.936,136.400 236.487,136.400 237.024 C 136.400 237.561,136.220 238.000,136.000 238.000 C 135.780 238.000,135.600 238.540,135.600 239.200 C 135.600 239.860,135.420 240.400,135.200 240.400 C 134.980 240.400,134.800 240.760,134.800 241.200 C 134.800 241.640,134.620 242.000,134.400 242.000 C 134.180 242.000,134.000 242.439,134.000 242.976 C 134.000 243.513,133.820 244.064,133.600 244.200 C 133.380 244.336,133.200 244.887,133.200 245.424 C 133.200 245.961,133.020 246.400,132.800 246.400 C 132.580 246.400,132.400 246.749,132.400 247.176 C 132.400 247.603,132.220 248.064,132.000 248.200 C 131.780 248.336,131.600 248.887,131.600 249.424 C 131.600 249.961,131.420 250.400,131.200 250.400 C 130.980 250.400,130.800 250.839,130.800 251.376 C 130.800 251.913,130.620 252.464,130.400 252.600 C 130.180 252.736,130.000 253.197,130.000 253.624 C 130.000 254.051,129.820 254.400,129.600 254.400 C 129.380 254.400,129.200 254.940,129.200 255.600 C 129.200 256.260,129.020 256.800,128.800 256.800 C 128.580 256.800,128.400 257.079,128.400 257.419 C 128.400 257.760,128.040 258.784,127.600 259.694 C 127.160 260.605,126.800 261.646,126.800 262.008 C 126.800 262.370,126.677 262.790,126.526 262.941 C 125.327 264.140,124.855 269.160,125.730 271.404 C 126.452 273.254,127.723 275.200,128.211 275.200 C 128.452 275.200,129.036 275.560,129.508 276.000 C 129.980 276.440,130.824 276.800,131.383 276.800 C 131.942 276.800,132.400 276.980,132.400 277.200 C 132.400 277.420,133.300 277.600,134.400 277.600 C 135.500 277.600,136.400 277.420,136.400 277.200 C 136.400 276.980,137.030 276.800,137.800 276.800 C 138.570 276.800,139.200 276.620,139.200 276.400 C 139.200 276.180,139.408 276.000,139.661 276.000 C 140.357 276.000,143.200 272.767,143.200 271.976 C 143.200 270.875,143.919 270.800,154.433 270.800 C 164.133 270.800,164.400 270.821,164.400 271.600 C 164.400 272.040,164.580 272.400,164.800 272.400 C 165.020 272.400,165.200 272.641,165.200 272.936 C 165.200 274.101,168.968 276.800,170.595 276.800 C 171.148 276.800,171.600 276.980,171.600 277.200 C 171.600 277.420,172.410 277.600,173.400 277.600 C 174.390 277.600,175.200 277.420,175.200 277.200 C 175.200 276.980,175.740 276.800,176.400 276.800 C 177.060 276.800,177.600 276.620,177.600 276.400 C 177.600 276.180,177.876 276.000,178.213 276.000 C 179.009 276.000,181.600 273.409,181.600 272.613 C 181.600 272.276,181.780 272.000,182.000 272.000 C 182.239 272.000,182.400 270.467,182.400 268.200 C 182.400 265.933,182.239 264.400,182.000 264.400 C 181.780 264.400,181.600 263.860,181.600 263.200 C 181.600 262.540,181.420 262.000,181.200 262.000 C 180.980 262.000,180.800 261.550,180.800 261.000 C 180.800 260.450,180.620 260.000,180.400 260.000 C 180.180 260.000,180.000 259.640,180.000 259.200 C 180.000 258.760,179.820 258.400,179.600 258.400 C 179.380 258.400,179.200 257.860,179.200 257.200 C 179.200 256.540,179.020 256.000,178.800 256.000 C 178.580 256.000,178.400 255.460,178.400 254.800 C 178.400 254.140,178.220 253.600,178.000 253.600 C 177.780 253.600,177.600 253.240,177.600 252.800 C 177.600 252.360,177.420 252.000,177.200 252.000 C 176.980 252.000,176.800 251.460,176.800 250.800 C 176.800 250.140,176.620 249.600,176.400 249.600 C 176.180 249.600,176.000 249.186,176.000 248.680 C 176.000 248.174,175.857 247.589,175.682 247.380 C 175.507 247.171,174.835 245.380,174.188 243.400 C 173.540 241.420,172.873 239.740,172.705 239.667 C 172.537 239.593,172.400 239.186,172.400 238.761 C 172.400 238.015,172.255 237.624,171.262 235.705 C 171.008 235.213,170.800 234.448,170.800 234.005 C 170.800 233.562,170.620 233.200,170.400 233.200 C 170.180 233.200,170.000 232.761,170.000 232.224 C 170.000 231.687,169.820 231.136,169.600 231.000 C 169.380 230.864,169.200 230.403,169.200 229.976 C 169.200 229.549,169.020 229.200,168.800 229.200 C 168.580 229.200,168.400 228.761,168.400 228.224 C 168.400 227.687,168.220 227.136,168.000 227.000 C 167.780 226.864,167.600 226.313,167.600 225.776 C 167.600 225.239,167.420 224.800,167.200 224.800 C 166.980 224.800,166.800 224.440,166.800 224.000 C 166.800 223.560,166.620 223.200,166.400 223.200 C 166.180 223.200,166.000 222.660,166.000 222.000 C 166.000 221.340,165.820 220.800,165.600 220.800 C 165.380 220.800,165.200 220.361,165.200 219.824 C 165.200 219.287,165.020 218.736,164.800 218.600 C 164.580 218.464,164.400 218.003,164.400 217.576 C 164.400 217.149,164.220 216.800,164.000 216.800 C 163.780 216.800,163.600 216.528,163.600 216.195 C 163.600 214.833,160.555 211.200,159.413 211.200 C 159.076 211.200,158.800 211.064,158.800 210.897 C 158.800 209.943,151.949 209.112,151.400 210.000 M183.400 210.000 C 183.264 210.220,182.803 210.400,182.376 210.400 C 181.949 210.400,181.600 210.580,181.600 210.800 C 181.600 211.020,181.322 211.200,180.982 211.200 C 177.836 211.200,175.521 219.699,177.639 223.470 C 178.771 225.484,181.147 227.600,182.278 227.600 C 182.785 227.600,183.200 227.780,183.200 228.000 C 183.200 228.237,184.667 228.400,186.800 228.400 L 190.400 228.400 190.400 249.800 C 190.400 263.800,190.538 271.200,190.800 271.200 C 191.020 271.200,191.200 271.650,191.200 272.200 C 191.200 272.750,191.350 273.200,191.532 273.200 C 191.715 273.200,192.106 273.650,192.400 274.200 C 192.694 274.750,193.092 275.200,193.284 275.200 C 193.476 275.200,194.020 275.560,194.492 276.000 C 194.992 276.466,195.904 276.800,196.675 276.800 C 197.404 276.800,198.000 276.980,198.000 277.200 C 198.000 277.420,198.720 277.600,199.600 277.600 C 200.480 277.600,201.200 277.420,201.200 277.200 C 201.200 276.980,201.880 276.800,202.712 276.800 C 203.765 276.800,204.398 276.557,204.800 276.000 C 205.117 275.560,205.526 275.200,205.707 275.200 C 206.264 275.200,207.974 273.043,207.987 272.324 C 207.994 271.952,208.180 271.536,208.400 271.400 C 208.659 271.240,208.800 263.596,208.800 249.776 L 208.800 228.400 212.400 228.400 C 214.533 228.400,216.000 228.237,216.000 228.000 C 216.000 227.780,216.455 227.600,217.011 227.600 C 217.674 227.600,218.601 227.007,219.711 225.873 C 224.252 221.230,223.248 213.335,217.800 210.853 C 217.140 210.553,216.287 210.148,215.905 209.953 C 214.916 209.450,183.712 209.495,183.400 210.000 M242.800 210.000 C 242.800 210.220,242.384 210.400,241.875 210.400 C 241.367 210.400,240.564 210.760,240.092 211.200 C 239.620 211.640,239.086 212.000,238.906 212.000 C 238.475 212.000,237.200 213.498,237.200 214.005 C 237.200 214.222,237.020 214.400,236.800 214.400 C 236.580 214.400,236.400 214.760,236.400 215.200 C 236.400 215.640,236.220 216.000,236.000 216.000 C 235.780 216.000,235.600 216.360,235.600 216.800 C 235.600 217.240,235.420 217.600,235.200 217.600 C 234.980 217.600,234.800 218.140,234.800 218.800 C 234.800 219.460,234.653 220.000,234.472 220.000 C 234.292 220.000,233.900 220.900,233.600 222.000 C 233.300 223.100,232.908 224.000,232.728 224.000 C 232.547 224.000,232.400 224.439,232.400 224.976 C 232.400 225.513,232.220 226.064,232.000 226.200 C 231.780 226.336,231.600 226.797,231.600 227.224 C 231.600 227.651,231.420 228.000,231.200 228.000 C 230.980 228.000,230.800 228.450,230.800 229.000 C 230.800 229.550,230.620 230.000,230.400 230.000 C 230.180 230.000,230.000 230.540,230.000 231.200 C 230.000 231.860,229.820 232.400,229.600 232.400 C 229.380 232.400,229.200 232.749,229.200 233.176 C 229.200 233.603,229.020 234.064,228.800 234.200 C 228.580 234.336,228.400 234.887,228.400 235.424 C 228.400 235.961,228.220 236.400,228.000 236.400 C 227.780 236.400,227.600 236.762,227.600 237.205 C 227.600 237.648,227.441 238.323,227.247 238.705 C 226.188 240.787,224.800 244.702,224.800 245.608 C 224.800 246.044,224.620 246.400,224.400 246.400 C 224.180 246.400,224.000 246.940,224.000 247.600 C 224.000 248.260,223.820 248.800,223.600 248.800 C 223.380 248.800,223.200 249.160,223.200 249.600 C 223.200 250.040,223.020 250.400,222.800 250.400 C 222.580 250.400,222.400 250.940,222.400 251.600 C 222.400 252.260,222.220 252.800,222.000 252.800 C 221.780 252.800,221.600 253.149,221.600 253.576 C 221.600 254.003,221.420 254.464,221.200 254.600 C 220.980 254.736,220.800 255.287,220.800 255.824 C 220.800 256.361,220.620 256.800,220.400 256.800 C 220.180 256.800,220.000 257.239,220.000 257.776 C 220.000 258.313,219.820 258.864,219.600 259.000 C 219.380 259.136,219.200 259.597,219.200 260.024 C 219.200 260.451,219.020 260.800,218.800 260.800 C 218.580 260.800,218.400 261.250,218.400 261.800 C 218.400 262.350,218.220 262.800,218.000 262.800 C 217.780 262.800,217.600 263.340,217.600 264.000 C 217.600 264.660,217.420 265.200,217.200 265.200 C 216.972 265.200,216.800 266.392,216.800 267.976 C 216.800 269.503,216.980 270.864,217.200 271.000 C 217.420 271.136,217.600 271.563,217.600 271.948 C 217.600 272.334,217.960 273.036,218.400 273.508 C 218.840 273.980,219.200 274.554,219.200 274.783 C 219.200 275.012,219.520 275.200,219.912 275.200 C 220.303 275.200,220.883 275.560,221.200 276.000 C 221.539 276.470,222.235 276.800,222.888 276.800 C 223.500 276.800,224.000 276.980,224.000 277.200 C 224.000 277.420,224.810 277.600,225.800 277.600 C 226.790 277.600,227.600 277.420,227.600 277.200 C 227.600 276.980,228.280 276.800,229.112 276.800 C 230.165 276.800,230.798 276.557,231.200 276.000 C 231.517 275.560,232.097 275.200,232.488 275.200 C 232.880 275.200,233.200 274.945,233.200 274.633 C 233.200 274.322,233.361 274.007,233.558 273.933 C 233.755 273.860,234.265 273.170,234.692 272.400 L 235.468 271.000 245.734 270.893 C 255.797 270.789,256.000 270.802,256.000 271.593 C 256.000 272.037,256.180 272.400,256.400 272.400 C 256.620 272.400,256.800 272.635,256.800 272.922 C 256.800 273.569,259.263 276.000,259.919 276.000 C 260.184 276.000,260.400 276.180,260.400 276.400 C 260.400 276.620,260.940 276.800,261.600 276.800 C 262.260 276.800,262.800 276.980,262.800 277.200 C 262.800 277.420,263.700 277.600,264.800 277.600 C 265.900 277.600,266.800 277.420,266.800 277.200 C 266.800 276.980,267.340 276.800,268.000 276.800 C 268.660 276.800,269.200 276.620,269.200 276.400 C 269.200 276.180,269.478 276.000,269.818 276.000 C 270.572 276.000,272.092 274.525,273.185 272.731 C 274.333 270.849,274.341 265.467,273.200 263.106 C 272.760 262.195,272.400 261.211,272.400 260.919 C 272.400 260.628,272.220 260.032,272.000 259.595 C 271.780 259.158,271.420 258.442,271.200 258.005 C 270.980 257.568,270.800 256.938,270.800 256.605 C 270.800 256.272,270.620 256.000,270.400 256.000 C 270.180 256.000,270.000 255.460,270.000 254.800 C 270.000 254.140,269.820 253.600,269.600 253.600 C 269.380 253.600,269.200 253.161,269.200 252.624 C 269.200 252.087,269.020 251.536,268.800 251.400 C 268.580 251.264,268.400 250.803,268.400 250.376 C 268.400 249.949,268.220 249.600,268.000 249.600 C 267.780 249.600,267.600 249.060,267.600 248.400 C 267.600 247.740,267.420 247.200,267.200 247.200 C 266.980 247.200,266.800 246.851,266.800 246.424 C 266.800 245.997,266.620 245.536,266.400 245.400 C 266.180 245.264,266.000 244.713,266.000 244.176 C 266.000 243.639,265.820 243.200,265.600 243.200 C 265.380 243.200,265.200 242.750,265.200 242.200 C 265.200 241.650,265.020 241.200,264.800 241.200 C 264.580 241.200,264.400 240.761,264.400 240.224 C 264.400 239.687,264.220 239.136,264.000 239.000 C 263.780 238.864,263.600 238.403,263.600 237.976 C 263.600 237.549,263.420 237.200,263.200 237.200 C 262.980 237.200,262.800 236.660,262.800 236.000 C 262.800 235.340,262.620 234.800,262.400 234.800 C 262.180 234.800,262.000 234.451,262.000 234.024 C 262.000 233.597,261.820 233.136,261.600 233.000 C 261.380 232.864,261.200 232.313,261.200 231.776 C 261.200 231.239,261.020 230.800,260.800 230.800 C 260.580 230.800,260.400 230.361,260.400 229.824 C 260.400 229.287,260.220 228.736,260.000 228.600 C 259.780 228.464,259.600 228.003,259.600 227.576 C 259.600 227.149,259.440 226.800,259.245 226.800 C 259.050 226.800,258.792 226.305,258.672 225.700 C 258.142 223.039,257.439 220.800,257.133 220.800 C 256.950 220.800,256.800 220.386,256.800 219.880 C 256.800 219.374,256.651 218.789,256.470 218.580 C 256.288 218.371,255.898 217.432,255.603 216.494 C 255.018 214.629,252.062 211.200,251.040 211.200 C 250.688 211.200,250.400 211.064,250.400 210.897 C 250.400 210.354,247.264 209.600,245.006 209.600 C 243.793 209.600,242.800 209.780,242.800 210.000 M77.400 211.600 C 77.264 211.820,76.889 212.000,76.566 212.000 C 75.790 212.000,72.400 215.409,72.400 216.189 C 72.400 216.525,72.220 216.800,72.000 216.800 C 71.737 216.800,71.600 226.200,71.600 244.200 C 71.600 262.200,71.737 271.600,72.000 271.600 C 72.220 271.600,72.400 271.960,72.400 272.400 C 72.400 272.840,72.580 273.200,72.800 273.200 C 73.020 273.200,73.200 273.388,73.200 273.618 C 73.200 274.691,76.245 276.800,77.795 276.800 C 78.348 276.800,78.800 276.980,78.800 277.200 C 78.800 277.454,81.867 277.600,87.200 277.600 C 92.533 277.600,95.600 277.454,95.600 277.200 C 95.600 276.971,96.800 276.800,98.400 276.800 C 100.000 276.800,101.200 276.629,101.200 276.400 C 101.200 276.180,101.729 276.000,102.376 276.000 C 103.023 276.000,103.664 275.820,103.800 275.600 C 103.936 275.380,104.374 275.200,104.773 275.200 C 105.708 275.200,109.130 273.295,110.318 272.113 C 110.823 271.611,111.408 271.200,111.619 271.200 C 112.123 271.200,115.200 268.020,115.200 267.499 C 115.200 267.276,115.516 266.803,115.903 266.447 C 116.289 266.091,116.860 265.305,117.170 264.700 C 117.481 264.095,117.885 263.600,118.068 263.600 C 118.250 263.600,118.400 263.240,118.400 262.800 C 118.400 262.360,118.580 262.000,118.800 262.000 C 119.020 262.000,119.200 261.640,119.200 261.200 C 119.200 260.760,119.380 260.400,119.600 260.400 C 119.820 260.400,120.000 259.860,120.000 259.200 C 120.000 258.540,120.180 258.000,120.400 258.000 C 120.620 258.000,120.800 257.561,120.800 257.024 C 120.800 256.487,120.980 255.936,121.200 255.800 C 121.420 255.664,121.600 254.969,121.600 254.256 C 121.600 253.543,121.787 252.773,122.016 252.544 C 122.875 251.685,122.078 233.142,121.158 232.574 C 120.961 232.452,120.800 231.823,120.800 231.176 C 120.800 230.529,120.620 230.000,120.400 230.000 C 120.180 230.000,120.000 229.550,120.000 229.000 C 120.000 228.450,119.820 228.000,119.600 228.000 C 119.380 228.000,119.200 227.640,119.200 227.200 C 119.200 226.760,119.020 226.400,118.800 226.400 C 118.580 226.400,118.400 226.080,118.400 225.688 C 118.400 225.297,118.040 224.717,117.600 224.400 C 117.160 224.083,116.800 223.596,116.800 223.319 C 116.800 223.041,116.361 222.316,115.825 221.707 C 115.288 221.098,114.279 219.925,113.583 219.100 C 112.887 218.275,112.138 217.600,111.919 217.600 C 111.700 217.600,111.017 217.060,110.400 216.400 C 109.783 215.740,109.006 215.200,108.673 215.200 C 108.339 215.200,108.007 215.065,107.933 214.900 C 107.712 214.401,104.378 212.800,103.562 212.800 C 103.143 212.800,102.800 212.620,102.800 212.400 C 102.800 212.180,102.091 212.000,101.224 212.000 C 100.357 212.000,99.536 211.820,99.400 211.600 C 99.245 211.349,95.137 211.200,88.400 211.200 C 81.663 211.200,77.555 211.349,77.400 211.600 M96.400 230.400 C 96.400 230.620,96.760 230.800,97.200 230.800 C 97.640 230.800,98.000 230.980,98.000 231.200 C 98.000 231.420,98.278 231.600,98.618 231.600 C 99.418 231.600,101.200 233.382,101.200 234.182 C 101.200 234.522,101.380 234.800,101.600 234.800 C 101.820 234.800,102.000 235.160,102.000 235.600 C 102.000 236.040,102.180 236.400,102.400 236.400 C 102.620 236.400,102.800 236.940,102.800 237.600 C 102.800 238.260,102.980 238.800,103.200 238.800 C 103.447 238.800,103.600 240.867,103.600 244.200 C 103.600 247.533,103.447 249.600,103.200 249.600 C 102.980 249.600,102.800 250.140,102.800 250.800 C 102.800 251.460,102.620 252.000,102.400 252.000 C 102.180 252.000,102.000 252.360,102.000 252.800 C 102.000 253.240,101.820 253.600,101.600 253.600 C 101.380 253.600,101.200 253.876,101.200 254.213 C 101.200 254.992,98.617 257.600,97.847 257.600 C 97.528 257.600,97.207 257.773,97.133 257.984 C 97.060 258.195,95.515 258.491,93.700 258.641 L 90.400 258.915 90.400 244.458 L 90.400 230.000 93.400 230.000 C 95.133 230.000,96.400 230.169,96.400 230.400 M154.828 245.600 C 155.033 245.600,155.200 246.140,155.200 246.800 C 155.200 247.460,155.380 248.000,155.600 248.000 C 155.820 248.000,156.000 248.360,156.000 248.800 C 156.000 249.240,156.180 249.600,156.400 249.600 C 156.620 249.600,156.800 250.140,156.800 250.800 L 156.800 252.000 154.000 252.000 C 151.467 252.000,151.200 251.924,151.200 251.200 C 151.200 250.760,151.380 250.400,151.600 250.400 C 151.820 250.400,152.000 250.051,152.000 249.624 C 152.000 249.197,152.180 248.736,152.400 248.600 C 152.620 248.464,152.800 247.913,152.800 247.376 C 152.800 246.839,152.980 246.400,153.200 246.400 C 153.420 246.400,153.600 245.980,153.600 245.467 C 153.600 244.236,154.164 243.690,154.328 244.762 C 154.398 245.223,154.623 245.600,154.828 245.600 M245.829 245.371 C 246.143 245.686,246.400 246.215,246.400 246.548 C 246.400 246.881,246.580 247.264,246.800 247.400 C 247.020 247.536,247.200 248.087,247.200 248.624 C 247.200 249.161,247.360 249.600,247.555 249.600 C 247.750 249.600,247.988 250.140,248.085 250.800 L 248.261 252.000 245.331 252.000 C 243.644 252.000,242.400 251.830,242.400 251.600 C 242.400 251.380,242.580 251.200,242.800 251.200 C 243.020 251.200,243.200 250.660,243.200 250.000 C 243.200 249.340,243.380 248.800,243.600 248.800 C 243.820 248.800,244.000 248.260,244.000 247.600 C 244.000 246.940,244.180 246.400,244.400 246.400 C 244.620 246.400,244.800 246.040,244.800 245.600 C 244.800 244.653,245.053 244.596,245.829 245.371 M130.000 320.376 C 130.000 323.929,130.162 326.453,130.400 326.600 C 130.620 326.736,130.800 327.113,130.800 327.437 C 130.800 328.558,134.449 331.600,135.795 331.600 C 136.128 331.600,136.400 331.780,136.400 332.000 C 136.400 332.264,148.733 332.400,172.600 332.400 C 196.467 332.400,208.800 332.264,208.800 332.000 C 208.800 331.780,209.255 331.600,209.811 331.600 C 210.940 331.600,214.400 328.442,214.400 327.411 C 214.400 327.075,214.580 326.800,214.800 326.800 C 215.049 326.800,215.200 324.467,215.200 320.600 L 215.200 314.400 271.427 314.400 L 327.655 314.400 327.458 318.100 C 327.232 322.353,326.892 325.055,326.437 326.200 C 325.784 327.845,325.112 329.829,324.913 330.700 C 324.799 331.195,324.548 331.600,324.353 331.600 C 324.159 331.600,324.000 331.832,324.000 332.116 C 324.000 332.400,323.280 333.428,322.400 334.400 C 321.520 335.372,320.800 336.361,320.800 336.598 C 320.800 336.834,320.255 337.349,319.589 337.743 C 318.923 338.136,317.941 338.895,317.407 339.429 C 316.873 339.963,316.250 340.400,316.023 340.400 C 315.795 340.400,315.245 340.712,314.799 341.093 C 313.945 341.825,310.287 343.170,309.100 343.189 C 308.715 343.195,308.400 343.380,308.400 343.600 C 308.400 344.210,38.717 344.149,36.828 343.539 C 36.043 343.285,34.833 342.835,34.140 342.539 C 33.446 342.242,32.717 342.000,32.519 342.000 C 31.909 342.000,30.006 341.017,30.003 340.700 C 30.001 340.535,29.720 340.400,29.378 340.400 C 28.430 340.400,23.164 334.876,22.032 332.694 C 21.720 332.092,21.315 331.600,21.132 331.600 C 20.950 331.600,20.800 331.240,20.800 330.800 C 20.800 330.360,20.620 330.000,20.400 330.000 C 20.180 330.000,20.000 329.561,20.000 329.024 C 20.000 328.487,19.820 327.936,19.600 327.800 C 19.380 327.664,19.200 327.113,19.200 326.576 C 19.200 326.039,19.020 325.600,18.800 325.600 C 18.572 325.600,18.400 324.408,18.400 322.824 C 18.400 321.297,18.220 319.936,18.000 319.800 C 17.780 319.664,17.600 318.393,17.600 316.976 L 17.600 314.400 73.800 314.400 L 130.000 314.400 130.000 320.376 " stroke="none" fill="#ffffff" fill-rule="evenodd"></path><path id="path2" d="M243.654 96.067 C 243.625 96.434,243.484 97.064,243.341 97.467 C 243.141 98.033,243.195 98.096,243.575 97.746 C 243.846 97.497,243.987 96.867,243.888 96.346 C 243.790 95.826,243.684 95.700,243.654 96.067 M242.849 99.200 C 242.816 99.530,242.689 100.250,242.567 100.800 C 242.375 101.664,242.407 101.703,242.799 101.088 C 243.048 100.697,243.175 99.977,243.081 99.488 C 242.986 99.000,242.882 98.870,242.849 99.200 M242.054 103.400 C 242.019 103.840,241.889 104.650,241.767 105.200 C 241.575 106.063,241.607 106.103,241.998 105.490 C 242.247 105.099,242.377 104.289,242.286 103.690 C 242.178 102.979,242.097 102.879,242.054 103.400 M241.267 109.126 C 241.230 109.856,240.999 110.846,240.753 111.326 C 240.339 112.137,240.355 112.154,240.981 111.558 C 241.457 111.105,241.608 110.458,241.495 109.358 C 241.343 107.882,241.331 107.870,241.267 109.126 M311.419 196.700 C 311.220 197.222,311.269 197.285,311.608 196.949 C 311.884 196.674,313.110 196.549,314.731 196.630 C 317.183 196.752,317.254 196.734,315.600 196.411 C 312.747 195.854,311.714 195.925,311.419 196.700 M324.800 196.433 C 323.347 196.686,323.557 196.717,325.891 196.597 C 327.481 196.515,328.887 196.617,329.015 196.824 C 329.143 197.031,329.429 197.200,329.652 197.200 C 329.875 197.200,329.787 196.930,329.457 196.600 C 328.821 195.964,327.724 195.925,324.800 196.433 " stroke="none" fill="#248c8c" fill-rule="evenodd"></path><path id="path3" d="M241.301 106.600 C 241.305 107.480,241.387 107.793,241.483 107.295 C 241.579 106.798,241.575 106.078,241.475 105.695 C 241.375 105.313,241.296 105.720,241.301 106.600 M319.305 197.087 C 319.914 197.179,320.814 197.177,321.305 197.082 C 321.797 196.987,321.300 196.911,320.200 196.914 C 319.100 196.917,318.697 196.995,319.305 197.087 " stroke="none" fill="#145c5c" fill-rule="evenodd"></path><path id="path4" d="M241.467 103.067 C 241.320 103.213,241.215 103.798,241.234 104.367 C 241.268 105.381,241.275 105.379,241.621 104.220 C 241.985 103.003,241.931 102.602,241.467 103.067 M240.673 108.553 C 240.523 108.945,240.416 109.746,240.436 110.333 C 240.470 111.328,240.498 111.309,240.857 110.063 C 241.273 108.619,241.123 107.382,240.673 108.553 M313.312 197.095 C 314.364 197.177,315.984 197.176,316.912 197.092 C 317.840 197.008,316.980 196.941,315.000 196.942 C 313.020 196.943,312.260 197.012,313.312 197.095 M323.700 197.094 C 324.745 197.176,326.455 197.176,327.500 197.094 C 328.545 197.012,327.690 196.944,325.600 196.944 C 323.510 196.944,322.655 197.012,323.700 197.094 " stroke="none" fill="#1c382c" fill-rule="evenodd"></path></g></svg>